<svg width="16" height="16" viewBox="0 0 16 16" fill="none" xmlns="http://www.w3.org/2000/svg">
<path fill-rule="evenodd" clip-rule="evenodd" d="M13.4579 7.79412H12.2628C12.1768 7.79412 12.1069 7.86395 12.1069 7.95C12.1069 8.03605 12.1768 8.10588 12.2628 8.10588H13.4579C13.5439 8.10588 13.6138 8.03605 13.6138 7.95C13.6138 7.86395 13.5439 7.79412 13.4579 7.79412ZM7.95 15.2765C3.91015 15.2765 0.623529 11.9898 0.623529 7.95C0.623529 3.91015 3.91015 0.623529 7.95 0.623529C11.99 0.623529 15.2765 3.91015 15.2765 7.95C15.2765 11.9898 11.99 15.2765 7.95 15.2765ZM7.95 0C3.56646 0 0 3.56634 0 7.95C0 12.3337 3.56646 15.9 7.95 15.9C12.3337 15.9 15.9 12.3337 15.9 7.95C15.9 3.56634 12.3337 0 7.95 0ZM12.3474 5.66614C12.4948 5.57735 12.5424 5.3858 12.4535 5.23827C12.3648 5.09074 12.1732 5.04311 12.0258 5.13202L8.44683 7.28694C8.30791 7.18268 8.13718 7.11859 7.95 7.11859C7.77666 7.11859 7.61591 7.17184 7.48273 7.26262L4.61749 5.34776C4.47432 5.25186 4.28065 5.29052 4.18513 5.43368C4.08948 5.57685 4.12789 5.77039 4.27105 5.86616L7.13604 7.7809C7.12482 7.83552 7.11871 7.89201 7.11871 7.95C7.11871 8.40904 7.49083 8.78129 7.95 8.78129C8.40929 8.78129 8.78141 8.40904 8.78141 7.95C8.78141 7.90585 8.77505 7.86345 8.76845 7.82118L12.3474 5.66614ZM7.95 3.79305C8.03605 3.79305 8.10588 3.72322 8.10588 3.63717V2.44212C8.10588 2.35607 8.03605 2.28623 7.95 2.28623C7.86408 2.28623 7.79412 2.35607 7.79412 2.44212V3.63717C7.79412 3.72322 7.86408 3.79305 7.95 3.79305ZM7.95 12.1068C7.86408 12.1068 7.79412 12.1767 7.79412 12.2627V13.4578C7.79412 13.5438 7.86408 13.6136 7.95 13.6136C8.03605 13.6136 8.10588 13.5438 8.10588 13.4578V12.2627C8.10588 12.1767 8.03605 12.1068 7.95 12.1068ZM7.95 14.1464C4.53343 14.1464 1.75361 11.3667 1.75361 7.95C1.75361 4.53331 4.53343 1.75361 7.95 1.75361C11.3667 1.75361 14.1464 4.53331 14.1464 7.95C14.1464 11.3667 11.3667 14.1464 7.95 14.1464ZM7.95 1.59773C4.44739 1.59773 1.59773 4.44739 1.59773 7.95C1.59773 11.4526 4.44739 14.3023 7.95 14.3023C11.4527 14.3023 14.3023 11.4526 14.3023 7.95C14.3023 4.44739 11.4527 1.59773 7.95 1.59773ZM3.6373 7.79412H2.44224C2.35619 7.79412 2.28636 7.86395 2.28636 7.95C2.28636 8.03605 2.35619 8.10588 2.44224 8.10588H3.6373C3.72334 8.10588 3.79318 8.03605 3.79318 7.95C3.79318 7.86395 3.72334 7.79412 3.6373 7.79412Z" fill="#252525"/>
<mask id="mask0_6_144" style="mask-type:alpha" maskUnits="userSpaceOnUse" x="0" y="0" width="16" height="16">
<path fill-rule="evenodd" clip-rule="evenodd" d="M13.4579 7.79412H12.2628C12.1768 7.79412 12.1069 7.86395 12.1069 7.95C12.1069 8.03605 12.1768 8.10588 12.2628 8.10588H13.4579C13.5439 8.10588 13.6138 8.03605 13.6138 7.95C13.6138 7.86395 13.5439 7.79412 13.4579 7.79412ZM7.95 15.2765C3.91015 15.2765 0.623529 11.9898 0.623529 7.95C0.623529 3.91015 3.91015 0.623529 7.95 0.623529C11.99 0.623529 15.2765 3.91015 15.2765 7.95C15.2765 11.9898 11.99 15.2765 7.95 15.2765ZM7.95 0C3.56646 0 0 3.56634 0 7.95C0 12.3337 3.56646 15.9 7.95 15.9C12.3337 15.9 15.9 12.3337 15.9 7.95C15.9 3.56634 12.3337 0 7.95 0ZM12.3474 5.66614C12.4948 5.57735 12.5424 5.3858 12.4535 5.23827C12.3648 5.09074 12.1732 5.04311 12.0258 5.13202L8.44683 7.28694C8.30791 7.18268 8.13718 7.11859 7.95 7.11859C7.77666 7.11859 7.61591 7.17184 7.48273 7.26262L4.61749 5.34776C4.47432 5.25186 4.28065 5.29052 4.18513 5.43368C4.08948 5.57685 4.12789 5.77039 4.27105 5.86616L7.13604 7.7809C7.12482 7.83552 7.11871 7.89201 7.11871 7.95C7.11871 8.40904 7.49083 8.78129 7.95 8.78129C8.40929 8.78129 8.78141 8.40904 8.78141 7.95C8.78141 7.90585 8.77505 7.86345 8.76845 7.82118L12.3474 5.66614ZM7.95 3.79305C8.03605 3.79305 8.10588 3.72322 8.10588 3.63717V2.44212C8.10588 2.35607 8.03605 2.28623 7.95 2.28623C7.86408 2.28623 7.79412 2.35607 7.79412 2.44212V3.63717C7.79412 3.72322 7.86408 3.79305 7.95 3.79305ZM7.95 12.1068C7.86408 12.1068 7.79412 12.1767 7.79412 12.2627V13.4578C7.79412 13.5438 7.86408 13.6136 7.95 13.6136C8.03605 13.6136 8.10588 13.5438 8.10588 13.4578V12.2627C8.10588 12.1767 8.03605 12.1068 7.95 12.1068ZM7.95 14.1464C4.53343 14.1464 1.75361 11.3667 1.75361 7.95C1.75361 4.53331 4.53343 1.75361 7.95 1.75361C11.3667 1.75361 14.1464 4.53331 14.1464 7.95C14.1464 11.3667 11.3667 14.1464 7.95 14.1464ZM7.95 1.59773C4.44739 1.59773 1.59773 4.44739 1.59773 7.95C1.59773 11.4526 4.44739 14.3023 7.95 14.3023C11.4527 14.3023 14.3023 11.4526 14.3023 7.95C14.3023 4.44739 11.4527 1.59773 7.95 1.59773ZM3.6373 7.79412H2.44224C2.35619 7.79412 2.28636 7.86395 2.28636 7.95C2.28636 8.03605 2.35619 8.10588 2.44224 8.10588H3.6373C3.72334 8.10588 3.79318 8.03605 3.79318 7.95C3.79318 7.86395 3.72334 7.79412 3.6373 7.79412Z" fill="white"/>
</mask>
<g mask="url(#mask0_6_144)">
</g>
</svg>
