<svg width="80" height="80" viewBox="0 0 80 80" fill="none" xmlns="http://www.w3.org/2000/svg">
<path fill-rule="evenodd" clip-rule="evenodd" d="M76.25 73.125C76.25 74.8481 74.8481 76.25 73.125 76.25H6.875C5.15188 76.25 3.75 74.8481 3.75 73.125V72.5H76.25V73.125ZM9.55437 63.125H70.445L75.5231 71.25H49.8956L49.375 68.125H30.625L30.1044 71.25H4.47687L9.55437 63.125ZM73.75 61.3375V38.0056C72.5875 38.9262 71.3344 39.7556 70 40.4769V60.625H10V24.375C10 23.3412 10.8412 22.5 11.875 22.5H31.3356C31.2794 21.8781 31.25 21.2525 31.25 20.625C31.25 19.9931 31.2862 19.3694 31.3412 18.75H11.875C8.77312 18.75 6.25 21.2738 6.25 24.375V61.3375L0.285 70.8812C0.09875 71.1794 0 71.5238 0 71.875V73.125C0 76.9156 3.08437 80 6.875 80H73.125C76.9156 80 80 76.9156 80 73.125V71.875C80 71.5238 79.9012 71.1794 79.715 70.8812L73.75 61.3375Z" fill="#333333"/>
<path fill-rule="evenodd" clip-rule="evenodd" d="M37.5 20.625C37.5 11.32 46.1912 3.75 56.875 3.75C67.5588 3.75 76.25 11.32 76.25 20.625C76.25 29.93 67.5588 37.5 56.875 37.5C54.1781 37.5 51.5575 37.0187 49.0875 36.0694L48.4406 35.8213L41.0156 38.4562L41.9587 31.4156L41.4044 30.7769C38.85 27.83 37.5 24.3194 37.5 20.625V20.625ZM36.4844 44.0438L48.4031 39.8138C51.1087 40.7669 53.955 41.25 56.875 41.25C69.6263 41.25 80 31.9975 80 20.625C80 9.2525 69.6263 0 56.875 0C44.1237 0 33.75 9.2525 33.75 20.625C33.75 24.9587 35.2231 29.0713 38.02 32.5713L36.4844 44.0438Z" fill="#333333"/>
<path fill-rule="evenodd" clip-rule="evenodd" d="M56.875 25.625C58.9456 25.625 60.625 23.8063 60.625 21.5625C60.625 19.3187 58.9456 17.5 56.875 17.5C54.8044 17.5 53.125 19.3187 53.125 21.5625C53.125 23.8063 54.8044 25.625 56.875 25.625" fill="#333333"/>
<path fill-rule="evenodd" clip-rule="evenodd" d="M68.125 25.625C70.1956 25.625 71.875 23.8063 71.875 21.5625C71.875 19.3187 70.1956 17.5 68.125 17.5C66.0544 17.5 64.375 19.3187 64.375 21.5625C64.375 23.8063 66.0544 25.625 68.125 25.625" fill="#333333"/>
<path fill-rule="evenodd" clip-rule="evenodd" d="M45.625 25.625C47.6956 25.625 49.375 23.8063 49.375 21.5625C49.375 19.3187 47.6956 17.5 45.625 17.5C43.5544 17.5 41.875 19.3187 41.875 21.5625C41.875 23.8063 43.5544 25.625 45.625 25.625" fill="#333333"/>
<path fill-rule="evenodd" clip-rule="evenodd" d="M13.125 58.125H66.875V41.9156C66.4638 42.0731 66.0469 42.2213 65.625 42.36V56.875H14.375V26.875H32.2044C32.0756 26.4619 31.9644 26.0444 31.8612 25.625H13.125V58.125Z" fill="#333333"/>
</svg>