<svg width="81" height="80" viewBox="0 0 81 80" fill="none" xmlns="http://www.w3.org/2000/svg">
<path fill-rule="evenodd" clip-rule="evenodd" d="M67.76 42V7.86C67.76 6.75543 66.8646 5.86 65.76 5.86H51.4V1.52C51.4 0.680527 50.7195 0 49.88 0C49.0405 0 48.36 0.680527 48.36 1.52V5.84H19.68V1.52C19.68 0.680527 18.9995 0 18.16 0C17.3205 0 16.64 0.680527 16.64 1.52V5.84H2C0.89543 5.84 0 6.73543 0 7.84V62.56C0 63.6646 0.89543 64.56 2 64.56H46.3C49.096 72.2262 56.8488 76.915 64.9366 75.831C73.0245 74.747 79.2691 68.1823 79.9478 60.0504C80.6264 51.9185 75.5563 44.4096 67.76 42ZM62.62 72.98C54.7002 72.98 48.28 66.5598 48.28 58.64C48.28 50.7202 54.7002 44.3 62.62 44.3C70.5398 44.3 76.96 50.7202 76.96 58.64C76.96 66.5598 70.5398 72.98 62.62 72.98ZM16.62 8.88H3.03999V17.26H64.72V8.88H51.4V12.56C51.4 13.3995 50.7195 14.08 49.88 14.08C49.0405 14.08 48.36 13.3995 48.36 12.56V8.88H19.66V12.56C19.66 13.3995 18.9795 14.08 18.14 14.08C17.3005 14.08 16.62 13.3995 16.62 12.56V8.88ZM3.03999 61.54V20.3H64.72V41.38C59.2641 40.6798 53.8003 42.6159 50.0026 46.5952C46.2049 50.5745 44.5259 56.1227 45.48 61.54H3.03999ZM67.78 52.68L69.22 50.98V50.94C69.5773 50.5256 70.1285 50.3332 70.666 50.4354C71.2036 50.5376 71.6458 50.9188 71.826 51.4354C72.0063 51.952 71.8973 52.5256 71.54 52.94L67.78 57.32L64.74 60.88L64.18 61.52L61.56 64.56L60.12 66.24C59.8362 66.5766 59.4203 66.7736 58.98 66.78C58.553 66.778 58.1465 66.5966 57.86 66.28L56.3 64.56L53.54 61.52L51.88 59.68C51.4409 59.2905 51.2653 58.6829 51.429 58.1192C51.5926 57.5555 52.0662 57.1364 52.6456 57.0425C53.2251 56.9486 53.8068 57.1968 54.14 57.68L57.64 61.56L58.94 63L60.18 61.56L64.74 56.24L67.78 52.68Z" fill="#252525"/>
<mask id="mask0_101_52" style="mask-type:alpha" maskUnits="userSpaceOnUse" x="0" y="0" width="81" height="76">
<path fill-rule="evenodd" clip-rule="evenodd" d="M67.76 42V7.86C67.76 6.75543 66.8646 5.86 65.76 5.86H51.4V1.52C51.4 0.680527 50.7195 0 49.88 0C49.0405 0 48.36 0.680527 48.36 1.52V5.84H19.68V1.52C19.68 0.680527 18.9995 0 18.16 0C17.3205 0 16.64 0.680527 16.64 1.52V5.84H2C0.89543 5.84 0 6.73543 0 7.84V62.56C0 63.6646 0.89543 64.56 2 64.56H46.3C49.096 72.2262 56.8488 76.915 64.9366 75.831C73.0245 74.747 79.2691 68.1823 79.9478 60.0504C80.6264 51.9185 75.5563 44.4096 67.76 42ZM62.62 72.98C54.7002 72.98 48.28 66.5598 48.28 58.64C48.28 50.7202 54.7002 44.3 62.62 44.3C70.5398 44.3 76.96 50.7202 76.96 58.64C76.96 66.5598 70.5398 72.98 62.62 72.98ZM16.62 8.88H3.03999V17.26H64.72V8.88H51.4V12.56C51.4 13.3995 50.7195 14.08 49.88 14.08C49.0405 14.08 48.36 13.3995 48.36 12.56V8.88H19.66V12.56C19.66 13.3995 18.9795 14.08 18.14 14.08C17.3005 14.08 16.62 13.3995 16.62 12.56V8.88ZM3.03999 61.54V20.3H64.72V41.38C59.2641 40.6798 53.8003 42.6159 50.0026 46.5952C46.2049 50.5745 44.5259 56.1227 45.48 61.54H3.03999ZM67.78 52.68L69.22 50.98V50.94C69.5773 50.5256 70.1285 50.3332 70.666 50.4354C71.2036 50.5376 71.6458 50.9188 71.826 51.4354C72.0063 51.952 71.8973 52.5256 71.54 52.94L67.78 57.32L64.74 60.88L64.18 61.52L61.56 64.56L60.12 66.24C59.8362 66.5766 59.4203 66.7736 58.98 66.78C58.553 66.778 58.1465 66.5966 57.86 66.28L56.3 64.56L53.54 61.52L51.88 59.68C51.4409 59.2905 51.2653 58.6829 51.429 58.1192C51.5926 57.5555 52.0662 57.1364 52.6456 57.0425C53.2251 56.9486 53.8068 57.1968 54.14 57.68L57.64 61.56L58.94 63L60.18 61.56L64.74 56.24L67.78 52.68Z" fill="white"/>
</mask>
<g mask="url(#mask0_101_52)">
<rect x="-0.216797" width="81" height="80" rx="4" fill="#252525"/>
</g>
</svg>
